<svg xmlns="http://www.w3.org/2000/svg" xmlns:xlink="http://www.w3.org/1999/xlink" x="0px" y="0px"
	 viewBox="0 0 512 512" style="enable-background:new 0 0 512 512;" xml:space="preserve" fill="#f64e60">
<g>
	<g>
		<g>
			<path d="M441.24,64.594L259.906,0.609c-2.313-0.812-4.833-0.812-7.146,0L71.427,64.594C67.146,66.104,64,70.155,64,74.706v127.97
				c0,165.638,24.844,226.176,187.5,308.168c1.521,0.771,3.177,1.156,4.833,1.156s3.313-0.385,4.833-1.156
				C423.823,428.853,448,368.315,448,202.677V74.706C448,70.155,445.521,66.104,441.24,64.594z M426.938,202.677
				c0,158.578-20.219,209.92-170.604,286.579C105.948,412.596,85.729,361.254,85.729,202.677V82.288l170.604-60.194l170.604,60.194
				V202.677z"/>
			<path d="M213.333,160v53.333H160c-5.896,0-10.667,4.771-10.667,10.667v64c0,5.896,4.771,10.667,10.667,10.667h53.333V352
				c0,5.896,4.771,10.667,10.667,10.667h64c5.896,0,10.667-4.771,10.667-10.667v-53.333H352c5.896,0,10.667-4.771,10.667-10.667v-64
				c0-5.896-4.771-10.667-10.667-10.667h-53.333V160c0-5.896-4.771-10.667-10.667-10.667h-64
				C218.104,149.333,213.333,154.104,213.333,160z M234.667,224v-53.333h42.667V224c0,5.896,4.771,10.667,10.667,10.667h53.333
				v42.667H288c-5.896,0-10.667,4.771-10.667,10.667v53.333h-42.667V288c0-5.896-4.771-10.667-10.667-10.667h-53.333v-42.667H224
				C229.896,234.667,234.667,229.896,234.667,224z"/>
		</g>
	</g>
</g>
<g>
</g>
<g>
</g>
<g>
</g>
<g>
</g>
<g>
</g>
<g>
</g>
<g>
</g>
<g>
</g>
<g>
</g>
<g>
</g>
<g>
</g>
<g>
</g>
<g>
</g>
<g>
</g>
<g>
</g>
</svg>
