<svg viewBox="0 0 443.33 500" xmlns="http://www.w3.org/2000/svg" xmlns:xlink="http://www.w3.org/1999/xlink"><clipPath id="a" transform="translate(-28.33)"><path d="m0 0h500v500h-500z"/></clipPath><clipPath id="b" transform="translate(-28.33)"><path d="m375.24 440.37h36.55v22.55h-36.55z"/></clipPath><clipPath id="c" transform="translate(-28.33)"><path d="m273.67 353.35h39.59v26.34h-39.59z"/></clipPath><clipPath id="d" transform="translate(-28.33)"><path d="m321.47 473.66h39.59v26.34h-39.59z"/></clipPath><g clip-path="url(#a)"><path d="m443.33 239.51-.02 8.98-89.82 52.19.03-8.98z" fill="#d3d3dd"/><path d="m353.52 291.7-.03 8.98-90.4-52.19.03-8.98z" fill="#e0dee9"/><path d="m443.33 239.51-89.81 52.19-90.4-52.19 89.81-52.2z" fill="#eaeaf4"/><path d="m429.32 103.39-.38 134.73-75.59 43.93.38-134.73z" fill="#d3d3dd"/><path d="m353.73 147.32-.38 134.73-76.09-43.93.38-134.73z" fill="#e0dee9"/><path d="m429.32 103.39-75.59 43.93-76.09-43.93 75.6-43.92z" fill="#eaeaf4"/><g fill="#2a313f"><path d="m297.25 162.3-.03 13.97-12.15-7.01.04-13.97z"/><path d="m297.31 142.88-.04 13.96-12.15-7.02.04-13.96z"/><path d="m297.37 123.44-.05 13.97-12.14-7.01.03-13.97z"/><path d="m346.35 210.11-.04 13.97-43.6-25.17.04-13.97z"/><path d="m346.4 190.68-.03 13.97-43.6-25.17.04-13.97z"/><path d="m346.46 171.25-.04 13.96-43.6-25.17.05-13.96z"/><path d="m346.51 151.82-.03 13.97-43.6-25.17.04-13.97z"/><path d="m297.14 201.16-.03 13.97-12.15-7.01.04-13.97z"/><path d="m297.2 181.74-.04 13.97-12.15-7.02.04-13.97z"/><path d="m346.29 229.54-.04 13.97-43.59-25.17.04-13.97z"/><path d="m372.92 164.39.04 13.97-12.16 7.02-.04-13.97z"/><path d="m372.86 144.95.04 13.97-12.15 7.02-.04-13.97z"/><path d="m422.23 194.31.04 13.96-43.6 25.17-.04-13.96z"/><path d="m422.17 174.88.04 13.97-43.59 25.16-.04-13.96z"/><path d="m422.12 155.45.04 13.96-43.6 25.17-.04-13.96z"/><path d="m422.06 136.01.04 13.97-43.59 25.17-.04-13.97z"/><path d="m422.01 116.58.04 13.97-43.6 25.17-.04-13.97z"/><path d="m373.08 222.68.05 13.96-12.16 7.02-.04-13.96z"/><path d="m373.03 203.25.04 13.97-12.16 7.02-.03-13.97z"/><path d="m372.98 183.82.03 13.96-12.15 7.02-.04-13.96z"/></g><path d="m428.97 227.25-.03 10.87-75.59 43.93-.04-11.12z" fill="#9052fe"/><path d="m353.38 270.93-.03 11.12-76.09-43.93.03-11.12z" fill="#9052fe"/><g clip-path="url(#a)"><path d="m381.21 105.18h.86l4.32 2.5a16.37 16.37 0 0 1 -9.48 0z" fill="#2a313f" transform="translate(-28.33)"/><path d="m362.42 89.34c11-5.33 27.18-5.33 38.26 0l-3.9 2.27c-8.91-4.1-21.58-4.1-30.43 0z" fill="#2a313f" transform="translate(-28.33)"/><path d="m369.11 93.2a33.09 33.09 0 0 1 24.93 0l-3.93 2.28a24.52 24.52 0 0 0 -17.05 0z" fill="#2a313f" transform="translate(-28.33)"/><path d="m376.85 97.67a16.35 16.35 0 0 1 9.5 0l-4.3 2.5a6.46 6.46 0 0 0 -.88 0z" fill="#2a313f" transform="translate(-28.33)"/><path d="m386 102.92a2.09 2.09 0 0 0 0-.5l4.3-2.49a3.71 3.71 0 0 1 0 5.49z" fill="#2a313f" transform="translate(-28.33)"/><path d="m394.07 107.61c3.5-3 3.49-6.91-.05-9.87l3.98-2.29c5.63 4.25 5.66 10.2.08 14.45z" fill="#2a313f" transform="translate(-28.33)"/><path d="m369.18 97.74c-3.51 3-3.48 6.91.06 9.87l-3.93 2.29c-5.63-4.25-5.67-10.2-.09-14.45z" fill="#2a313f" transform="translate(-28.33)"/><path d="m400.79 111.49c7-5.14 7-12.49-.1-17.63l3.9-2.27c9.22 6.4 9.28 15.76.12 22.16z" fill="#2a313f" transform="translate(-28.33)"/><path d="m366.47 113.75c8.9 4.09 21.59 4.09 30.44 0l3.92 2.26c-11 5.33-27.18 5.33-38.25 0z" fill="#2a313f" transform="translate(-28.33)"/><path d="m362.47 93.86c-7.05 5.14-7 12.48.1 17.63l-3.9 2.26c-9.24-6.4-9.28-15.76-.13-22.15z" fill="#2a313f" transform="translate(-28.33)"/><path d="m373.15 109.87a24.49 24.49 0 0 0 17 0l4 2.28a33.12 33.12 0 0 1 -24.94 0z" fill="#2a313f" transform="translate(-28.33)"/><path d="m377.29 102.42a1.74 1.74 0 0 0 0 .51l-4.29 2.49a3.69 3.69 0 0 1 0-5.49z" fill="#2a313f" transform="translate(-28.33)"/><path d="m311.59 315.79-.03 8.98-89.81 52.2.02-8.98z" fill="#d3d3dd"/><path d="m221.77 367.99-.02 8.98-90.4-52.19.02-8.99z" fill="#e0dee9"/><path d="m311.59 315.79-89.82 52.2-90.4-52.2 89.82-52.19z" fill="#eaeaf4"/><path d="m297.58 179.68-.39 134.73-75.59 43.92.39-134.72z" fill="#d3d3dd"/><path d="m221.99 223.61-.39 134.72-76.08-43.93.38-134.72z" fill="#e0dee9"/><path d="m297.58 179.68-75.59 43.93-76.09-43.93 75.59-43.93z" fill="#eaeaf4"/><path d="m165.51 238.59-.04 13.97-12.15-7.02.04-13.97z" fill="#2a313f"/><path d="m165.57 219.16-.04 13.96-12.15-7.01.04-13.96z" fill="#2a313f"/><path d="m165.62 199.73-.04 13.97-12.15-7.02.04-13.97z" fill="#2a313f"/><path d="m214.6 286.4-.04 13.97-43.59-25.17.04-13.97z" fill="#2a313f"/><path d="m214.66 266.97-.04 13.97-43.59-25.18.03-13.96z" fill="#2a313f"/><path d="m214.72 247.54-.04 13.96-43.6-25.17.04-13.96z" fill="#2a313f"/><path d="m214.77 228.1-.04 13.97-43.59-25.17.04-13.96z" fill="#2a313f"/><path d="m165.4 277.45-.04 13.97-12.15-7.02.04-13.96z" fill="#2a313f"/><path d="m165.46 258.02-.04 13.97-12.15-7.01.04-13.97z" fill="#2a313f"/><path d="m214.55 305.83-.04 13.97-43.59-25.17.04-13.97z" fill="#2a313f"/><path d="m241.18 240.67.04 13.97-12.16 7.02-.04-13.97z" fill="#2a313f"/><path d="m241.12 221.24.04 13.97-12.16 7.02-.04-13.97z" fill="#2a313f"/><path d="m290.48 270.6.04 13.96-43.59 25.17-.04-13.96z" fill="#2a313f"/><path d="m290.43 251.16.04 13.97-43.6 25.17-.04-13.97z" fill="#2a313f"/><path d="m290.37 231.74.04 13.96-43.59 25.17-.04-13.97z" fill="#2a313f"/><path d="m290.32 212.3.04 13.97-43.6 25.17-.04-13.97z" fill="#2a313f"/><path d="m290.26 192.87.04 13.97-43.59 25.16-.04-13.97z" fill="#2a313f"/><path d="m241.34 298.97.04 13.96-12.16 7.02-.03-13.96z" fill="#2a313f"/><path d="m241.29 279.53.03 13.97-12.15 7.02-.04-13.97z" fill="#2a313f"/><path d="m241.23 260.11.04 13.96-12.15 7.02-.05-13.96z" fill="#2a313f"/><path d="m297.23 303.54-.03 10.86-75.59 43.93-.03-11.12z" fill="#9052fe"/><path d="m221.64 347.21-.03 11.12-76.09-43.93.03-11.12z" fill="#9052fe"/><path d="m249.47 181.46a6 6 0 0 0 .85 0l4.33 2.5a16.29 16.29 0 0 1 -9.48 0z" fill="#2a313f" transform="translate(-28.33)"/><path d="m230.68 165.63c11-5.33 27.17-5.33 38.26 0l-3.9 2.26c-8.91-4.1-21.59-4.1-30.44 0z" fill="#2a313f" transform="translate(-28.33)"/><path d="m237.36 169.48a33.21 33.21 0 0 1 24.94 0l-3.93 2.29a24.54 24.54 0 0 0 -17.06 0z" fill="#2a313f" transform="translate(-28.33)"/><path d="m245.11 174a16.32 16.32 0 0 1 9.49 0l-4.29 2.49h-.88z" fill="#2a313f" transform="translate(-28.33)"/><path d="m254.21 179.21a2.09 2.09 0 0 0 0-.5l4.3-2.5a3.72 3.72 0 0 1 0 5.49z" fill="#2a313f" transform="translate(-28.33)"/><path d="m262.33 183.9c3.5-3 3.48-6.92-.05-9.88l3.92-2.28c5.63 4.24 5.67 10.2.09 14.44z" fill="#2a313f" transform="translate(-28.33)"/><path d="m237.43 174c-3.5 3-3.47 6.92.06 9.88l-3.93 2.28c-5.63-4.24-5.66-10.2-.08-14.44z" fill="#2a313f" transform="translate(-28.33)"/><path d="m269 187.77c7-5.13 7-12.48-.1-17.62l3.9-2.27c9.23 6.4 9.29 15.76.12 22.16z" fill="#2a313f" transform="translate(-28.33)"/><path d="m234.73 190c8.89 4.09 21.58 4.09 30.43 0l3.92 2.26c-11 5.33-27.17 5.33-38.25 0z" fill="#2a313f" transform="translate(-28.33)"/><path d="m230.72 170.15c-7 5.13-7 12.48.1 17.62l-3.89 2.23c-9.24-6.4-9.29-15.76-.13-22.16z" fill="#2a313f" transform="translate(-28.33)"/><path d="m241.4 186.15a24.49 24.49 0 0 0 17 0l4 2.29a33.09 33.09 0 0 1 -24.93 0z" fill="#2a313f" transform="translate(-28.33)"/><path d="m245.55 178.71a1.4 1.4 0 0 0 0 .5l-4.3 2.5a3.71 3.71 0 0 1 0-5.5z" fill="#2a313f" transform="translate(-28.33)"/><g clip-path="url(#b)" opacity=".4"><path d="m411.48 458.31c1.86-5-4.67-12.07-14.59-15.75s-19.47-2.56-21.33 2.44 4.67 12.07 14.59 15.76 19.46 2.59 21.33-2.43" fill="#d6d8e5" transform="translate(-28.33)"/></g><g clip-path="url(#c)" opacity=".4"><path d="m274.18 375.36c2.48 5.39 13.11 5.8 23.76.92s17.27-13.21 14.8-18.6-13.1-5.8-23.75-.92-17.28 13.21-14.81 18.6" fill="#d6d8e5" transform="translate(-28.33)"/></g><path d="m393.17 328.86c.91-1.47 7.87-2.43 10.16 3.47.87 2.24.74 8 1.47 11.55s2.43 5.63 3.05 8.55-.39 7.8-7.41 8.66-12.43-1.6-14.09-3.84-1.7-7 0-9.56 3-4.63 3-8z" fill="#3a2c6d" transform="translate(-28.33)"/><path d="m397.77 327.84s-5.25-1.51-8.43 1.32a7.81 7.81 0 0 0 -2.24 7.77c.43 1.66 1.27 3.92 2.59 4s8.08-13.13 8.08-13.13" fill="#3a2c6d" transform="translate(-28.33)"/><path d="m399.77 342.14s-.34 5.85-.24 6.28 2.3.84 2.91 1.35-3.18 6.44-5.11 7.32-7.89-1.37-8.31-4.34c-.38-2.73 1.71-4.86 2.52-5.6a12.1 12.1 0 0 1 1.64 0l.18-2.83c2.61-.84 6.41-2.14 6.41-2.14" fill="#ffcea9" transform="translate(-28.33)"/><path d="m385.64 353.18c0-.16-.88.31-.9.32s-.41 15-1.15 16.36c-1.87 3.18-6.83 8.57-6.95 9.17-.36 1.82.69.19 2.39 0 1-.12 6.59-5.82 7.86-7.12l.08.05c0-.05 0-.1 0-.15l.17-.17a8.27 8.27 0 0 0 0-1.21c2.33-16.27-.55-17.36-1.56-17.24" fill="#ffcea9" transform="translate(-28.33)"/><path d="m400.57 349c1.64.26 3.52 1.13 3.78 2a19.45 19.45 0 0 1 -.47 9.76c-1.42 3.76-2.38 6.15-3.2 7.77 0 0-7.1 3-12.83-.5 0 0-.39-4-.42-6.19-5.29-4.61-.77-10.3 3.71-14.72a9.75 9.75 0 0 1 1.62 0s-4 4.72-1.22 7.41c5.95-1.8 7.13-4.47 9-5.54" fill="#f4f4f4" transform="translate(-28.33)"/><path d="m388.85 334.9c.59-3.75 3.31-6.59 7.18-6.36a7.44 7.44 0 0 1 3.74 13.6 7.2 7.2 0 0 1 -.6 1.64c-1.37 1.6-5 2.61-6.21 2.63-1 0-1.94-1-2.91-2.57-2-3.36-1.52-7.09-1.2-8.94" fill="#ffcea9" transform="translate(-28.33)"/><path d="m397.23 328.6c2.71.54 4.95 1.3 5.68 4 .51 1.83 1.17 5.34.54 6.81l-.39 1.07-3.29 1.69s-1.53-1.28-1.06-5a2.62 2.62 0 0 0 -.46-1.42 4.11 4.11 0 0 1 -.45-1.13 4.26 4.26 0 0 0 -2.13-2.31c-2.45-1.37-6-.18-6.54.31a7.16 7.16 0 0 1 8.1-4" fill="#3a2c6d" transform="translate(-28.33)"/><path d="m402.17 447.35c-1.37 1.12-3.51.35-3.62.45a57.63 57.63 0 0 1 -5 3.85c-.86.67-2.19 1.57-1.95 2.87.43 2.31 4.14 1.6 5.54.89s2.54-1.88 3.86-2.7c.95-.59 1.88-.89 2-2.09.09-.72-.58-3.29-.82-3.27" fill="#38226d" transform="translate(-28.33)"/><path d="m403 450.14c-.19 1.15-1.1 1.46-2 2-1.35.84-2.53 2-3.93 2.75s-4.51 1.31-5.42-.35c.49 2.24 4.13 1.53 5.52.83s2.54-1.88 3.86-2.7c.95-.59 1.88-.89 2-2.09a2 2 0 0 0 0-.48" fill="#9c73ff" transform="translate(-28.33)"/><path d="m392.53 445.43c-1.26 1-3.16.45-3.26.54a52.65 52.65 0 0 1 -4.6 3.51c-.78.61-2 1.44-1.79 2.63.4 2.12 3.8 1.47 5.08.82s2.33-1.73 3.54-2.48c.86-.54 1.71-.82 1.85-1.91a7.35 7.35 0 0 0 -.82-3.11" fill="#38226d" transform="translate(-28.33)"/><path d="m393.33 448.1c-.17 1-1 1.34-1.86 1.87-1.24.76-2.32 1.87-3.6 2.52s-4.14 1.19-5-.32c.45 2 3.79 1.4 5.06.76s2.32-1.73 3.54-2.48c.86-.54 1.71-.82 1.85-1.91a2.41 2.41 0 0 0 0-.44" fill="#9c73ff" transform="translate(-28.33)"/><path d="m385.12 381.48c.6-4.74 2.35-11.62 2.35-11.62a13.9 13.9 0 0 0 5.26 1.3 43.12 43.12 0 0 0 7.95-.77 49 49 0 0 0 2.8 4.34c1.37 1.89 4 6 3.39 13.31-.42 4.75-3.08 24.9-3.08 24.9a37.61 37.61 0 0 1 1.63 10.45 87.1 87.1 0 0 1 -1.66 12.52l-1.59 11.44s-2.11 1.53-3.62.45l.19-11.19c-.18-2.74-.45-6.79-.62-9.37-.29-4.2-1-10.88-1.26-12.54s-.75-4.58-1-7.85-1.49-19.85-1.49-19.85l-.17 3.11s-.16 5-.89 11.26-1 9-1 9a13.34 13.34 0 0 1 1.42 4c.13 1.35 1.67 12 .75 17.4l-1.89 13.76a3.61 3.61 0 0 1 -3.25.43l-1.11-13.87c-.75-5.28-2.32-16.46-2.57-17.92a61.28 61.28 0 0 1 -.94-8.87c-.36-6-.23-19.08.38-23.82" fill="#ffcea9" transform="translate(-28.33)"/><path d="m400.68 368.54 4.08 8.2s6.23 9.12-.22 32.55l1.21 7.23s-12.22 7.84-20.39 0c0 0-2.84-21.65-1.33-31.64a114.57 114.57 0 0 1 3.81-17s2 2.21 12.3.75" fill="#ff7b7b" transform="translate(-28.33)"/><path d="m391.14 347.13s-3.24-1-6.69 6.2l1.29.77s3.39-5.12 5.4-7" fill="#ededed" transform="translate(-28.33)"/><path d="m337.49 386.1 13.95-8.11 10.02 5.78-13.96 8.11z" fill="#f4f4f4"/><path d="m378 378.58a6.26 6.26 0 0 0 -2.48.81 5.55 5.55 0 0 1 -.88.65c-.14.07-.27.16-.42.22a1.22 1.22 0 0 0 -.55.37 1.39 1.39 0 0 0 -.25.77 3.45 3.45 0 0 0 0 1c.12.5.64.47.92.12a1.21 1.21 0 0 0 .23-.61 1.32 1.32 0 0 1 .59-1.07l3.33-2.07a.41.41 0 0 0 -.44-.2" fill="#ffcea9" transform="translate(-28.33)"/><path d="m404.52 353.58c-.46-1.9-1.95-1.29-3.22-2.4-3 4.2-1 15.56-.6 16.77l-11.39 7.26-.76.48a14.11 14.11 0 0 1 -4.24 1.84c-1.14.13-1.73 1.73-2.95 1.88a.47.47 0 0 0 -.31.81c.49.47 1.79.08 2.68-1v.08a1 1 0 0 0 .51.81.83.83 0 0 0 .21.06.46.46 0 0 0 .06.22.91.91 0 0 0 .68.49.86.86 0 0 0 .94.6 1 1 0 0 0 .68-.31 6 6 0 0 0 2.49-1.8c.31-.39 1.4-1.31 1.85-1.72 3.09-1.32 12.36-5.28 12.77-5.85.62-.84 1.27-15.56.61-18.27" fill="#ffcea9" transform="translate(-28.33)"/><path d="m405.56 358.69s-3.65 1.64-6.67.11l.44-5.7s0-3.07 2.78-3.37 4.13 3.2 3.45 9" fill="#ededed" transform="translate(-28.33)"/><path d="m287.35 40 .29-.13c.38-.16.76-.3 1.14-.43h.07c.35-.12.7-.22 1-.32h.22a15 15 0 0 1 1.66-.36h.12c.43-.06.86-.1 1.28-.12h.25 1.18.25c.3 0 .59.06.88.1h.27c.34.06.68.14 1 .23h.12a8.15 8.15 0 0 1 .83.29l.27.12.73.35.25.13-34.77-20.21-.11-.06-.14-.07-.73-.35-.14-.07-.12-.05c-.28-.11-.56-.21-.84-.29h-.1c-.33-.09-.66-.17-1-.23h-.1-.17c-.29 0-.58-.08-.88-.1h-.17-.08c-.39 0-.78 0-1.18 0h-.09-.16c-.42 0-.84.06-1.28.12h-.1a15 15 0 0 0 -1.66.36h-.13-.09c-.35.1-.7.2-1 .32h-.07c-.38.13-.76.27-1.14.43h-.09l-.2.1c-.35.15-.71.31-1.07.49-.12.06-.25.11-.37.18-.45.22-.9.46-1.35.73l34.83 20.24c.45-.27.9-.51 1.35-.73l.37-.18c.36-.18.71-.34 1.07-.49" fill="#eaeaf4" transform="translate(-28.33)"/><path d="m267 32.52c.58-.26 1.16-.5 1.72-.7h.08a14.26 14.26 0 0 1 1.48-.41q.42-.11.84-.18a9.89 9.89 0 0 1 1-.16l.6-.06q.66 0 1.29 0h.29a11.73 11.73 0 0 1 1.48.19l.36.08a10.63 10.63 0 0 1 1.1.32l.34.12a8.77 8.77 0 0 1 1.31.63l-34.73-20.3-.11-.06a10.42 10.42 0 0 0 -1-.49l-.2-.07-.34-.12-.52-.19-.59-.12-.36-.08h-.19a11.76 11.76 0 0 0 -1.21-.15h-.37c-.31 0-.63 0-1 0-.11 0-.22 0-.34 0l-.6.07c-.18 0-.36 0-.55 0l-.5.11q-.42.07-.84.18l-.44.09c-.34.09-.69.2-1 .32h-.08c-.39.14-.79.29-1.2.46l-.52.23-.49.23c-.61.28-1.22.59-1.84.95s-1.5.92-2.24 1.45l34.83 20.24c.73-.52 1.48-1 2.24-1.45s1.23-.67 1.84-.95l.49-.22" fill="#eaeaf4" transform="translate(-28.33)"/><path d="m234.1 22.65.53-.23c.52-.21 1-.41 1.55-.59l.29-.11c.61-.2 1.21-.39 1.81-.55.34-.1.69-.18 1-.26l.51-.12c.49-.11 1-.19 1.45-.27h.08c.48-.07 1-.12 1.42-.17h.45.83a18.08 18.08 0 0 1 1.95 0h.34c.51 0 1 .1 1.52.18l.47.08a15.21 15.21 0 0 1 1.7.39h.07a15.37 15.37 0 0 1 1.53.54l.43.18c.43.19.84.39 1.25.61l.4.21-34.82-20.27-.18-.1-.22-.11c-.4-.22-.82-.42-1.25-.61l-.21-.11-.2-.07a15.37 15.37 0 0 0 -1.53-.54h-.05a15.21 15.21 0 0 0 -1.72-.41h-.2-.27c-.5-.08-1-.14-1.52-.18a2.13 2.13 0 0 1 -.25 0h-.08a18.28 18.28 0 0 0 -2 0h-.18-.64-.45c-.46.05-.94.1-1.41.17h-.07c-.48.07-1 .16-1.45.27-.18 0-.35.08-.52.12s-.62.14-.93.23h-.1c-.6.16-1.2.35-1.81.55l-.29.11c-.51.18-1 .38-1.55.59l-.17.06c-.12 0-.24.12-.36.16-.55.24-1.1.49-1.66.76l-.61.3c-.72.36-1.44.74-2.16 1.16-1 .57-2 1.19-2.94 1.84-.34.23-.66.49-1 .73-.62.44-1.25.88-1.86 1.35-.39.3-.76.63-1.14 1-.55.44-1.1.88-1.64 1.35s-.78.73-1.18 1.1-1 .92-1.51 1.41l-.07.06q-1.12 1.13-2.22 2.31l-.6.67c-.28.31-.56.61-.84.93s-.36.44-.54.66c-.52.62-1 1.24-1.54 1.87-.2.26-.42.5-.63.77s-.29.4-.44.6c-.38.49-.74 1-1.11 1.5-.23.32-.47.62-.69.94s-.3.46-.46.68c-.3.44-.6.89-.89 1.34s-.42.6-.62.91l-.54.89-.76 1.24-.44.73c-.25.42-.47.84-.71 1.26l-.63 1.14-.25.45c-.34.64-.66 1.29-1 1.94l-.39.78-.08.16c-.47 1-.91 1.94-1.34 2.92l-.06.15c-.12.27-.22.55-.34.83-.28.68-.57 1.35-.83 2-.06.14-.1.27-.15.41-.17.44-.32.89-.48 1.33s-.36 1-.52 1.44c-.06.2-.11.39-.17.58-.18.55-.34 1.1-.51 1.65s-.26.81-.37 1.22c-.05.19-.09.38-.14.58-.19.72-.36 1.43-.53 2.15-.09.38-.2.76-.28 1.13s-.13.62-.19.93c-.35.2-.71.38-1.07.59-.76.44-1.5.92-2.24 1.41l-.38.25c-.71.48-1.41 1-2.1 1.52l-.4.32c-.7.55-1.39 1.11-2.07 1.71l-.18.16c-.66.58-1.3 1.19-1.94 1.81l-.2.18-.12.13c-.49.48-1 1-1.45 1.48l-.07.08c-.45.49-.9 1-1.34 1.48l-.12.14-.16.19c-.71.83-1.41 1.68-2.09 2.55l-.06.07-.15.21c-.54.7-1.07 1.42-1.58 2.14l-.16.22a.41.41 0 0 0 -.07.11c-.5.7-1 1.42-1.44 2.14l-.14.21a3.37 3.37 0 0 0 -.19.32q-.57.89-1.11 1.8a2.61 2.61 0 0 1 -.17.28l-.06.11c-.41.7-.8 1.41-1.18 2.12l-.09.17-.18.35q-.45.85-.87 1.71l-.18.36a2 2 0 0 1 -.1.21c-.34.73-.68 1.45-1 2.19v.06l-.09.24c-.29.66-.56 1.32-.82 2l-.13.33c0 .08-.06.18-.1.27-.3.78-.58 1.57-.85 2.36l-.05.14c-.27.82-.51 1.64-.75 2.45a2.8 2.8 0 0 1 -.09.31 1.36 1.36 0 0 1 0 .17c-.26.94-.49 1.89-.7 2.84l-.06.25c0 .13-.05.25-.07.37-.08.37-.15.75-.21 1.12s-.1.51-.14.77-.12.76-.18 1.15c0 .18-.05.36-.08.54a.71.71 0 0 1 0 .14c-.1.81-.18 1.63-.24 2.43v.52c0 .83-.08 1.66-.08 2.47 0 6.17 1.52 11.08 4.11 14.51a14.39 14.39 0 0 0 4.18 3.74l34.83 20.23c-5.1-3-8.27-9.27-8.29-18.24 0-.81 0-1.64.08-2.47v-.51c.06-.81.14-1.63.24-2.44l.09-.68c.06-.39.11-.77.18-1.15s.09-.51.13-.77.14-.75.22-1.12c0-.21.09-.41.13-.62.21-.94.44-1.89.7-2.84 0-.16.09-.32.13-.48.24-.82.48-1.64.75-2.45l.06-.18c.26-.8.55-1.58.85-2.37.07-.2.15-.4.23-.6.26-.66.53-1.33.81-2 .05-.1.09-.2.13-.3.32-.74.66-1.46 1-2.19l.28-.57q.42-.85.87-1.71l.27-.52c.38-.71.77-1.42 1.18-2.11l.24-.4c.35-.61.72-1.21 1.1-1.81l.33-.52c.46-.72.94-1.44 1.44-2.15l.22-.31c.52-.73 1.05-1.45 1.59-2.15l.21-.28c.68-.87 1.38-1.72 2.09-2.55l.28-.33c.44-.5.89-1 1.34-1.47l.07-.09c.48-.5 1-1 1.45-1.48l.32-.31c.64-.62 1.29-1.23 1.94-1.81l.18-.16q1-.89 2.07-1.71l.4-.32c.69-.53 1.39-1 2.1-1.52l.37-.25c.74-.49 1.49-1 2.24-1.4l1.08-.6c.14-.68.31-1.37.47-2.06s.34-1.43.53-2.15.33-1.2.51-1.8.33-1.1.51-1.65.45-1.34.69-2c.16-.45.31-.9.48-1.34.31-.82.64-1.63 1-2.44.12-.28.22-.57.34-.84.47-1.09 1-2.16 1.48-3.23l.4-.78c.39-.8.8-1.6 1.23-2.39.21-.38.42-.76.64-1.14q.56-1 1.14-2c.25-.42.5-.84.76-1.25.38-.61.76-1.21 1.16-1.8s.59-.9.89-1.34.66-1.03 1.07-1.53.73-1 1.11-1.51.71-.91 1.07-1.36c.51-.63 1-1.25 1.54-1.87s.91-1.07 1.38-1.59c.2-.23.4-.45.61-.67q1.11-1.22 2.28-2.37c.5-.49 1-1 1.53-1.43s.76-.73 1.16-1.07 1.1-.92 1.65-1.38c.38-.31.75-.63 1.13-.93.61-.47 1.24-.91 1.87-1.36l1-.72c1-.65 2-1.27 2.94-1.84.72-.42 1.44-.8 2.16-1.16l.61-.3c.56-.27 1.11-.52 1.66-.75" fill="#eaeaf4" transform="translate(-28.33)"/><path d="m229.67 24.86c15.75-9.09 29-4.33 32.8 10.28a25.85 25.85 0 0 1 2.24-1.45c9.93-5.73 18.18-2.2 19.85 7.74 11.44-6.62 20.44-1.43 20.44 11.3 0 11.82-7.67 26-17.64 33.15-.82.58-1.6 1.1-2.4 1.56a23.78 23.78 0 0 1 -2.3 1.17l-86.54 50.12c-15.71 9.07-28.48 1.8-28.53-16.26s12.63-40 28.34-49.09c.37-.22.72-.4 1.08-.6 3.72-18.87 16.9-38.84 32.62-47.92" fill="#d3d3dd" transform="translate(-28.33)"/><path d="m339.23 97.92a39.49 39.49 0 0 1 -5.68 7.75c-.62.71-5.35-1.09-4.36-1.6s4.09-4.83 5.64-7.71a97.29 97.29 0 0 0 3.31-10.52c1-3.52 1.81-8.69 2.52-11.13a4.78 4.78 0 0 1 3.63-3.71c1.7-.39 2.8.07 2.49 2.13-.54 3.62-3.37 17.67-7.55 24.77" fill="#ffcea9" transform="translate(-28.33)"/><path d="m341.94 153c-1.46 1.2-3.63.11-3.73.22a66.64 66.64 0 0 1 -5.42 4.5c-.91.72-2.34 1.69-2.08 3.07.46 2.47 4.42 1.71 5.91.95s2.71-2 4.13-2.88c1-.63 2-.95 2.15-2.23.1-.76-.69-3.66-1-3.63" fill="#38226d" transform="translate(-28.33)"/><path d="m342.88 156.07c-.19 1.22-1.17 1.56-2.17 2.18-1.43.89-2.7 2.18-4.19 2.93s-4.82 1.39-5.79-.37c.53 2.38 4.41 1.63 5.89.88s2.71-2 4.13-2.88c1-.63 2-.95 2.15-2.23a1.84 1.84 0 0 0 0-.51" fill="#9c73ff" transform="translate(-28.33)"/><path d="m327.07 144.38c-1.47 1.2-4-.11-4.15 0a54 54 0 0 1 -4.83 4.37c-.92.72-2.34 1.68-2.09 3.06.47 2.48 4.42 1.72 5.92 1s2.71-2 4.12-2.89c1-.62 2-.95 2.16-2.22.09-.77-.87-3.31-1.13-3.28" fill="#38226d" transform="translate(-28.33)"/><path d="m328.16 147.32c-.2 1.22-1.18 1.56-2.18 2.18-1.43.89-2.7 2.18-4.19 2.93s-4.82 1.39-5.79-.37c.53 2.38 4.42 1.63 5.89.89s2.71-2 4.13-2.89c1-.63 2-.95 2.15-2.22a2.32 2.32 0 0 0 0-.52" fill="#9c73ff" transform="translate(-28.33)"/><path d="m361.56 105.93c1.63 10.16-2.89 13.95-8.75 16.11-4.21 1.55-10.25 3.94-10.25 3.94s.09 2.23.13 7.23c.05 4.41-.54 20.49-.54 20.49a4.9 4.9 0 0 1 -4.49 0s-2.36-12.32-2.86-17.87c-.68-7.54-1.84-12.47-1.45-14.09.33-1.43 8.57-5.48 11.19-7.65l-17.26 5.78a30.67 30.67 0 0 1 .5 5.68c-.16 6-.49 18.92-.49 18.92s-2.37 1.71-4.39 0c0 0-4.34-25.62-3.81-29 .5-3.22 15.71-9.79 18.38-12.06a4.3 4.3 0 0 1 3.38-.91z" fill="#8c50ff" transform="translate(-28.33)"/><path d="m320.18 110.17 11.59-6.7a.67.67 0 0 1 .67 0l20.34 11.75-11.93 6.88z" fill="#f4f4f4" transform="translate(-28.33)"/><g fill="#3a2c6d"><path d="m341.39 119.64.89.51c.07 0 .06.12 0 .16l-.85.49a.31.31 0 0 1 -.28 0l-.88-.51c-.07 0-.06-.11 0-.16l.84-.49a.31.31 0 0 1 .28 0" transform="translate(-28.33)"/><path d="m340.14 118.92.89.51c.07 0 .06.11 0 .16l-.85.49a.31.31 0 0 1 -.28 0l-.88-.51c-.07 0-.07-.11 0-.16l.84-.49a.31.31 0 0 1 .28 0" transform="translate(-28.33)"/><path d="m338.88 118.19.88.51c.07 0 .06.11 0 .16l-.84.49a.31.31 0 0 1 -.28 0l-.89-.51c-.07 0-.06-.12 0-.16l.85-.49a.31.31 0 0 1 .28 0" transform="translate(-28.33)"/><path d="m337.64 117.47.88.51c.08 0 .07.12 0 .17l-.84.48a.28.28 0 0 1 -.28 0l-.89-.51c-.07 0-.06-.11 0-.16l.84-.48a.31.31 0 0 1 .28 0" transform="translate(-28.33)"/><path d="m336.39 116.75.88.51c.07 0 .07.12 0 .16l-.84.49a.31.31 0 0 1 -.28 0l-.89-.51c-.07 0-.06-.11 0-.16l.85-.49a.31.31 0 0 1 .28 0" transform="translate(-28.33)"/><path d="m335.14 116 .88.51c.07 0 .06.11 0 .16l-.84.49a.31.31 0 0 1 -.28 0l-.89-.51c-.07 0-.06-.11 0-.16l.85-.49a.31.31 0 0 1 .28 0" transform="translate(-28.33)"/><path d="m333.89 115.31.88.51c.07 0 .06.11 0 .16l-.84.49a.37.37 0 0 1 -.29 0l-.88-.51c-.07 0-.06-.12 0-.16l.85-.49a.28.28 0 0 1 .28 0" transform="translate(-28.33)"/><path d="m332.64 114.58.88.51c.07 0 .06.12 0 .17l-.84.48a.3.3 0 0 1 -.29 0l-.88-.51c-.07 0-.06-.11 0-.16l.84-.48a.33.33 0 0 1 .29 0" transform="translate(-28.33)"/><path d="m331.38 113.86.89.51c.07 0 .06.12 0 .16l-.85.49a.31.31 0 0 1 -.28 0l-.88-.51c-.07 0-.06-.11 0-.16l.84-.49a.31.31 0 0 1 .28 0" transform="translate(-28.33)"/><path d="m330.13 113.14.89.51c.07 0 .06.11 0 .16l-.85.49a.31.31 0 0 1 -.28 0l-.88-.51c-.07 0-.07-.11 0-.16l.84-.49a.31.31 0 0 1 .28 0" transform="translate(-28.33)"/><path d="m328.88 112.42.89.51c.07 0 .06.11 0 .16l-.84.49a.34.34 0 0 1 -.28 0l-.88-.51c-.08 0-.07-.12 0-.16l.84-.49a.28.28 0 0 1 .28 0" transform="translate(-28.33)"/><path d="m327.63 111.69.88.51c.08 0 .07.12 0 .17l-.84.48a.31.31 0 0 1 -.28 0l-.89-.51c-.07 0-.06-.12 0-.17l.84-.48a.31.31 0 0 1 .28 0" transform="translate(-28.33)"/><path d="m326.38 111 .88.51c.07 0 .07.12 0 .16l-.84.49a.31.31 0 0 1 -.28 0l-.89-.51c-.07 0-.06-.11 0-.16l.85-.49a.31.31 0 0 1 .28 0" transform="translate(-28.33)"/><path d="m324.53 109.9 1.48.86c.07 0 .07.11 0 .16l-.84.49a.31.31 0 0 1 -.28 0l-1.49-.86c-.07 0-.06-.11 0-.16l.84-.49a.33.33 0 0 1 .29 0" transform="translate(-28.33)"/><path d="m340.75 117.87.88.51c.08 0 .07.11 0 .16l-.84.49a.31.31 0 0 1 -.28 0l-.89-.51c-.07 0-.06-.11 0-.16l.84-.49a.31.31 0 0 1 .28 0" transform="translate(-28.33)"/><path d="m339.5 117.14.88.51c.07 0 .06.12 0 .17l-.84.48a.31.31 0 0 1 -.28 0l-.89-.51c-.07 0-.06-.12 0-.17l.85-.48a.31.31 0 0 1 .28 0" transform="translate(-28.33)"/><path d="m338.24 116.42.89.51c.07 0 .06.12 0 .16l-.85.49a.31.31 0 0 1 -.28 0l-.88-.51c-.07 0-.06-.11 0-.16l.84-.49a.31.31 0 0 1 .28 0" transform="translate(-28.33)"/><path d="m337 115.7.88.51c.08 0 .07.11 0 .16l-.84.49a.31.31 0 0 1 -.28 0l-.88-.51c-.08 0-.07-.12 0-.16l.84-.49a.31.31 0 0 1 .28 0" transform="translate(-28.33)"/><path d="m335.75 115 .88.51c.07 0 .06.12 0 .16l-.84.49a.31.31 0 0 1 -.28 0l-.89-.51c-.07 0-.06-.11 0-.16l.85-.49a.31.31 0 0 1 .28 0" transform="translate(-28.33)"/><path d="m334.49 114.26.89.51c.07 0 .06.11 0 .16l-.85.49a.34.34 0 0 1 -.28 0l-.88-.51c-.07 0-.06-.12 0-.16l.84-.49a.28.28 0 0 1 .28 0" transform="translate(-28.33)"/><path d="m333.24 113.53.88.51c.08 0 .07.12 0 .17l-.84.48a.28.28 0 0 1 -.28 0l-.88-.51c-.08 0-.07-.11 0-.16l.84-.49a.34.34 0 0 1 .28 0" transform="translate(-28.33)"/><path d="m332 112.81.88.51c.07 0 .06.11 0 .16l-.88.52a.31.31 0 0 1 -.28 0l-.89-.51c-.07 0-.06-.11 0-.16l.85-.49a.31.31 0 0 1 .28 0" transform="translate(-28.33)"/><path d="m330.73 112.09.89.51c.07 0 .06.11 0 .16l-.85.49a.34.34 0 0 1 -.28 0l-.88-.51c-.07 0-.06-.12 0-.17l.84-.48a.28.28 0 0 1 .28 0" transform="translate(-28.33)"/><path d="m329.48 111.36.88.51c.08 0 .07.12 0 .16l-.84.49a.31.31 0 0 1 -.28 0l-.89-.51c-.07 0-.06-.11 0-.16l.84-.49a.31.31 0 0 1 .28 0" transform="translate(-28.33)"/><path d="m328.23 110.64.88.51c.07 0 .06.11 0 .16l-.84.49a.31.31 0 0 1 -.28 0l-.89-.51c-.07 0-.06-.12 0-.16l.85-.49a.31.31 0 0 1 .28 0" transform="translate(-28.33)"/><path d="m327 109.91.89.51c.07 0 .06.12 0 .17l-.85.48a.31.31 0 0 1 -.28 0l-.88-.51c-.07 0-.06-.12 0-.17l.84-.48a.31.31 0 0 1 .28 0" transform="translate(-28.33)"/><path d="m342 118.59 1.49.86c.07 0 .06.12 0 .16l-.84.49a.31.31 0 0 1 -.28 0l-1.49-.86c-.07 0-.06-.11 0-.16l.84-.49a.34.34 0 0 1 .28 0" transform="translate(-28.33)"/><path d="m324.59 109.86.88.51a.3.3 0 0 0 .26 0l.89-.52c.08 0 .08-.11 0-.15h-.07a.08.08 0 0 1 0-.14l.95-.55a.08.08 0 0 0 0-.15l-.56-.32a.32.32 0 0 0 -.27 0l-.88.51-.18.1-.13.08-.13.08-.76.43c-.08 0-.08.11 0 .16" transform="translate(-28.33)"/><path d="m346.24 116.84.88.51c.08 0 .07.11 0 .16l-.84.49a.34.34 0 0 1 -.28 0l-.89-.51c-.07 0-.06-.12 0-.16l.84-.49a.28.28 0 0 1 .28 0" transform="translate(-28.33)"/><path d="m345 116.12.89.51c.07 0 .06.11 0 .16l-.85.49a.34.34 0 0 1 -.28 0l-.88-.51c-.07 0-.07-.12 0-.16l.84-.49a.28.28 0 0 1 .28 0" transform="translate(-28.33)"/><path d="m343.74 115.4.89.51c.07 0 .06.11 0 .16l-.84.49a.37.37 0 0 1 -.29 0l-.88-.51c-.07 0-.06-.12 0-.16l.84-.49a.28.28 0 0 1 .28 0" transform="translate(-28.33)"/><path d="m333.12 109.26.88.51c.08 0 .07.12 0 .16l-.84.49a.31.31 0 0 1 -.28 0l-.89-.51c-.07 0-.06-.11 0-.16l.85-.49a.31.31 0 0 1 .28 0" transform="translate(-28.33)"/><path d="m331.87 108.54.89.51c.07 0 .06.12 0 .16l-.85.49a.31.31 0 0 1 -.28 0l-.88-.51c-.08 0-.07-.11 0-.16l.84-.49a.31.31 0 0 1 .28 0" transform="translate(-28.33)"/><path d="m330.62 107.82.89.51c.07 0 .06.12 0 .16l-.85.49a.31.31 0 0 1 -.28 0l-.88-.51c-.07 0-.06-.11 0-.16l.84-.49a.31.31 0 0 1 .28 0" transform="translate(-28.33)"/><path d="m329.38 107.1.88.51c.07 0 .06.12 0 .16l-.84.49a.33.33 0 0 1 -.29 0l-.88-.51c-.07 0-.06-.11 0-.16l.85-.49a.31.31 0 0 1 .28 0" transform="translate(-28.33)"/><path d="m342.18 114.49 1.2.7c.07 0 .06.11 0 .16l-.84.49a.34.34 0 0 1 -.28 0l-1.21-.7c-.07 0-.06-.11 0-.16l.84-.49a.33.33 0 0 1 .29 0" transform="translate(-28.33)"/><path d="m334.37 110 1.2.7c.07 0 .07.11 0 .16l-.84.49a.31.31 0 0 1 -.28 0l-1.21-.7c-.07 0-.06-.11 0-.16l.85-.49a.34.34 0 0 1 .28 0" transform="translate(-28.33)"/><path d="m335.94 110.89 5.87 3.39c.07 0 .06.11 0 .16l-.84.49a.31.31 0 0 1 -.28 0l-5.88-3.39c-.07 0-.06-.12 0-.16l.84-.49a.33.33 0 0 1 .29 0" transform="translate(-28.33)"/><path d="m341.62 117 .89.51c.07 0 .06.12 0 .16l-.85.49a.28.28 0 0 1 -.28 0l-.88-.51c-.07 0-.07-.11 0-.16l.84-.49a.34.34 0 0 1 .28 0" transform="translate(-28.33)"/><path d="m340.37 116.25.89.51c.07 0 .06.12 0 .16l-.85.49a.31.31 0 0 1 -.28 0l-.88-.51c-.07 0-.07-.11 0-.16l.84-.49a.31.31 0 0 1 .28 0" transform="translate(-28.33)"/><path d="m339.12 115.53.89.51c.07 0 .06.11 0 .16l-.85.49a.31.31 0 0 1 -.28 0l-.88-.51c-.07 0-.07-.11 0-.16l.84-.49a.31.31 0 0 1 .28 0" transform="translate(-28.33)"/><path d="m337.87 114.81.89.51c.07 0 .06.11 0 .16l-.85.49a.31.31 0 0 1 -.28 0l-.88-.51c-.07 0-.07-.12 0-.16l.84-.49a.31.31 0 0 1 .28 0" transform="translate(-28.33)"/><path d="m336.62 114.09.89.51c.07 0 .06.11 0 .16l-.85.49a.34.34 0 0 1 -.28 0l-.88-.51c-.07 0-.06-.12 0-.17l.84-.48a.28.28 0 0 1 .28 0" transform="translate(-28.33)"/><path d="m335.37 113.36.89.51c.07 0 .06.12 0 .17l-.85.48a.31.31 0 0 1 -.28 0l-.88-.51c-.07 0-.06-.12 0-.17l.84-.48a.31.31 0 0 1 .28 0" transform="translate(-28.33)"/><path d="m334.12 112.64.89.51c.07 0 .06.12 0 .16l-.85.49a.28.28 0 0 1 -.28 0l-.88-.51c-.07 0-.06-.11 0-.16l.84-.49a.34.34 0 0 1 .28 0" transform="translate(-28.33)"/><path d="m332.87 111.92.89.51c.07 0 .06.12 0 .16l-.85.49a.31.31 0 0 1 -.28 0l-.88-.51c-.07 0-.06-.11 0-.16l.84-.49a.31.31 0 0 1 .28 0" transform="translate(-28.33)"/><path d="m331.62 111.2.89.51c.07 0 .06.11 0 .16l-.85.49a.31.31 0 0 1 -.28 0l-.88-.51c-.07 0-.06-.11 0-.16l.84-.49a.31.31 0 0 1 .28 0" transform="translate(-28.33)"/><path d="m330.38 110.48.88.51c.07 0 .06.11 0 .16l-.85.49a.31.31 0 0 1 -.28 0l-.88-.51c-.07 0-.06-.12 0-.16l.84-.49a.33.33 0 0 1 .29 0" transform="translate(-28.33)"/><path d="m329.13 109.76.88.51c.07 0 .06.11 0 .16l-.85.49a.34.34 0 0 1 -.28 0l-.88-.51c-.07 0-.06-.12 0-.17l.84-.48a.3.3 0 0 1 .29 0" transform="translate(-28.33)"/><path d="m327.88 109 .88.51c.07 0 .06.12 0 .17l-.84.48a.33.33 0 0 1 -.29 0l-.88-.51c-.07 0-.06-.12 0-.17l.84-.48a.33.33 0 0 1 .29 0" transform="translate(-28.33)"/><path d="m342.87 117.69 1.83 1.06c.07 0 .06.11 0 .16l-.84.49a.31.31 0 0 1 -.28 0l-1.83-1.06c-.08 0-.07-.11 0-.16l.84-.48a.31.31 0 0 1 .28 0" transform="translate(-28.33)"/><path d="m343.46 116.63.88.51c.07 0 .06.11 0 .16l-.84.49a.31.31 0 0 1 -.28 0l-.89-.51c-.07 0-.06-.11 0-.16l.85-.49a.31.31 0 0 1 .28 0" transform="translate(-28.33)"/><path d="m342.21 115.91.88.51c.07 0 .06.11 0 .16l-.84.49a.31.31 0 0 1 -.28 0l-.89-.51c-.07 0-.06-.12 0-.16l.85-.49a.31.31 0 0 1 .28 0" transform="translate(-28.33)"/><path d="m341 115.19.88.51c.07 0 .06.11 0 .16l-.84.49a.33.33 0 0 1 -.29 0l-.88-.51c-.07 0-.06-.12 0-.16l.85-.49a.31.31 0 0 1 .28 0" transform="translate(-28.33)"/><path d="m339.71 114.47.88.51c.07 0 .06.11 0 .16l-.84.49a.34.34 0 0 1 -.28 0l-.89-.51c-.07 0-.06-.12 0-.17l.85-.48a.28.28 0 0 1 .28 0" transform="translate(-28.33)"/><path d="m338.46 113.74.88.51c.07 0 .06.12 0 .17l-.84.48a.31.31 0 0 1 -.28 0l-.89-.51c-.07 0-.06-.12 0-.17l.85-.48a.31.31 0 0 1 .28 0" transform="translate(-28.33)"/><path d="m337.21 113 .88.51c.07 0 .06.12 0 .17l-.84.48a.28.28 0 0 1 -.28 0l-.89-.51c-.07 0-.06-.11 0-.16l.85-.49a.34.34 0 0 1 .28 0" transform="translate(-28.33)"/><path d="m336 112.3.88.51c.07 0 .06.12 0 .16l-.84.49a.31.31 0 0 1 -.28 0l-.89-.51c-.07 0-.06-.11 0-.16l.85-.49a.31.31 0 0 1 .28 0" transform="translate(-28.33)"/><path d="m334.71 111.58.88.51c.08 0 .06.11 0 .16l-.84.49a.31.31 0 0 1 -.28 0l-.89-.51c-.07 0-.06-.11 0-.16l.85-.49a.31.31 0 0 1 .28 0" transform="translate(-28.33)"/><path d="m333.46 110.86.88.51c.08 0 .07.11 0 .16l-.84.49a.31.31 0 0 1 -.28 0l-.89-.51c-.07 0-.06-.12 0-.16l.85-.49a.31.31 0 0 1 .28 0" transform="translate(-28.33)"/><path d="m332.21 110.14.88.51c.08 0 .07.11 0 .16l-.84.49a.34.34 0 0 1 -.28 0l-.89-.51c-.07 0-.06-.12 0-.16l.85-.49a.28.28 0 0 1 .28 0" transform="translate(-28.33)"/><path d="m331 109.42.88.51c.08 0 .07.11 0 .16l-.84.49a.34.34 0 0 1 -.28 0l-.89-.51c-.07 0-.06-.12 0-.17l.85-.48a.28.28 0 0 1 .28 0" transform="translate(-28.33)"/><path d="m328.16 107.8 2.43 1.4c.08 0 .07.12 0 .17l-.84.48a.28.28 0 0 1 -.28 0l-2.43-1.4c-.07 0-.06-.11 0-.16l.84-.49a.31.31 0 0 1 .28 0" transform="translate(-28.33)"/><path d="m344.71 117.35 1.2.7c.07 0 .06.11 0 .16l-.84.49a.34.34 0 0 1 -.28 0l-1.21-.7c-.07 0-.06-.11 0-.16l.85-.49a.31.31 0 0 1 .28 0" transform="translate(-28.33)"/><path d="m323.27 110.63 17.73 10.24c.07 0 .06.12 0 .17l-.42.24a.33.33 0 0 1 -.29 0l-17.74-10.28c-.08 0-.07-.11 0-.16l.42-.24a.28.28 0 0 1 .28 0" transform="translate(-28.33)"/></g><path d="m315.7 111.08-.12.07-3.06 1.77-5.45-3.15-.12-.06 3.19-1.84z" fill="#bfbfbf"/><path d="m315.58 111.15-3.06 1.77-5.45-3.15 3.07-1.77z" fill="#e5e5e5"/><path d="m352.78 115.22v.27a1.11 1.11 0 0 1 -.56 1l-10.81 6.24a1.1 1.1 0 0 1 -1.11 0l-19.56-11.29a1.11 1.11 0 0 1 -.56-1v-.27l20.67 11.93z" fill="#e5e5e5" transform="translate(-28.33)"/><path d="m340.54 122.27a1.34 1.34 0 0 1 -1.14-.09l-19.47-11.24a1.33 1.33 0 0 1 -.65-.93l-2.13-12.71a1.64 1.64 0 0 1 0-.22 1.33 1.33 0 0 1 .39-.94l20.24 11.69a1 1 0 0 1 .48.68z" fill="#f4f4f4" transform="translate(-28.33)"/><path d="m340.85 122.1-.13.08-.18.09-2.3-13.76a1 1 0 0 0 -.48-.68l-20.24-11.69a1.05 1.05 0 0 1 .27-.2l20.28 11.7a1 1 0 0 1 .48.69z" fill="#e5e5e5" transform="translate(-28.33)"/><path d="m355.55 67.7s-.25 4.84-.14 5.27 2.22 1.84 2.84 2.35-3.35 4.41-5.27 5.3-8-1.45-8.14-4.44 1.05-5.51 2-5.65 8.73-2.83 8.73-2.83" fill="#ffcea9" transform="translate(-28.33)"/><path d="m356.09 73.8s-3.51 5.23-8.4 5.72c-1.55-1.52-1.69-6.94.45-8.67 0 0-2-1.58-3.31-1.27a6.88 6.88 0 0 0 -3 3.85 31.53 31.53 0 0 0 -1.73 11.2c.08 5.13 0 18.11 0 18.11a11.07 11.07 0 0 0 5.17 7.43 16 16 0 0 0 11.62 1.6c2.48-.58 3.4-2 4.25-3.77-.22-3.59-1.64-11-1-15.52s1.55-7.9 1.8-11.56-.48-3.58-2.31-4.89a29 29 0 0 0 -3.47-2.23" fill="#f4f4f4" transform="translate(-28.33)"/><path d="m350.46 115.49a25.62 25.62 0 0 1 2.75-1.58 5.79 5.79 0 0 0 2.36-1.42c.86-.85 2.27-4 3.27-7.14a32 32 0 0 0 1.16-10.8c-.43-4.37-2-10.47-2.4-13s.41-3.51 1.58-4.44c1.37-1.08 3.26-.6 4.27 2.91a68.1 68.1 0 0 1 2.29 14.98 34 34 0 0 1 -1.74 11 39.29 39.29 0 0 1 -4.2 8.65c-.48.81-.63 1.53-1.37 3.19a11.17 11.17 0 0 1 -3.21 4.27c-1.23.88-1.81 1-2.1.84s-.29-.61.23-1.08a9.22 9.22 0 0 0 2.19-2.45s-1.08 1.08-1.78 1.66a8.87 8.87 0 0 1 -2.05 1.31c-.72.32-1.72-.29-1.21-.77s1-.73 2.06-1.61a9 9 0 0 0 1.45-1.59 16.51 16.51 0 0 1 -2.28 1.48 3.79 3.79 0 0 1 -2.08.56c-.38 0-.84-.54-.13-1.06a13.87 13.87 0 0 0 2.73-1.86c.78-.78 1.23-1.44 1-1.45s-.65.47-1.57.76-1.91 0-2-.47-.09-.42.77-.84" fill="#ffcea9" transform="translate(-28.33)"/><path d="m344.61 60.49c.57-3.76 3.28-6.6 7.15-6.39a7.47 7.47 0 0 1 7 7.88 7.39 7.39 0 0 1 -3.25 5.72 7.37 7.37 0 0 1 -.6 1.64c-1.37 1.6-5.51 2.59-6.7 2.42a3.54 3.54 0 0 1 -3.08-2.52c-1.29-2.95-.88-6.9-.56-8.75" fill="#ffcea9" transform="translate(-28.33)"/><path d="m355.55 67.7-.35-3.28s2.67-6.93-3.65-5.6c-4.17.88-5.22 1.26-6.49-1.54s3.21-5.32 8.53-4.62a7.35 7.35 0 0 1 6.58 7.46c-.14 2.06-.69 6.23-4.62 7.58" fill="#3a2c6d" transform="translate(-28.33)"/><path d="m366.38 86.5s-3.45 3.44-7.54 2.45c-.58-.4-2-8.42-2-8.42s0-4.45 3.41-4.33 6.11 10.3 6.11 10.3" fill="#ededed" transform="translate(-28.33)"/><path d="m340.32 79.85a3.74 3.74 0 0 1 -2.55-1.15c.13-1.79 2.43-8.61 7.06-9.12a8.54 8.54 0 0 0 -2.89 3.49 45 45 0 0 0 -1.62 6.78" fill="#ededed" transform="translate(-28.33)"/><g clip-path="url(#d)" opacity=".4"><path d="m322 495.67c2.47 5.39 13.1 5.8 23.75.92s17.25-13.21 14.79-18.59-13.1-5.8-23.75-.92-17.28 13.21-14.8 18.6" fill="#d6d8e5" transform="translate(-28.33)"/></g><path d="m358.21 399.15s-.66 9.93-2 11.36-5.71 2.41-5.71 2.41l-3.4 5.58s3.1-17.75 3.78-18.18 7.29-1.17 7.29-1.17" fill="#ffcea9" transform="translate(-28.33)"/><path d="m351.68 388.12a3.73 3.73 0 0 1 4.73 1.43c1.25 2.07 2.54 9.17 2.66 10.38 0 0-1.75 2.42-4.38 2z" fill="#ededed" transform="translate(-28.33)"/><path d="m341.63 487.24a7.24 7.24 0 0 1 -5.5-.66c-1.32 0-8.5-3-9.48-.45-.86 2.26 2.25 4.35 3.92 4.76 3.62.88 6.31 2.68 7.77 3 1.08.23 2.49.38 3.35-.47 1-1 .95-4.82-.06-6.17" fill="#38226d" transform="translate(-28.33)"/><path d="m338.34 493.25c-1.46-.3-4.15-2.11-7.77-3-1.4-.34-3.8-1.86-4-3.68-.32 2.08 2.49 3.93 4 4.3 3.62.88 6.31 2.69 7.77 3 1.08.23 2.49.38 3.35-.47a2.18 2.18 0 0 0 .48-.87 4.33 4.33 0 0 1 -3.83.71" fill="#9c73ff" transform="translate(-28.33)"/><path d="m352.81 483.76a7.26 7.26 0 0 1 -5.49-.67c-1.33 0-8.51-3-9.49-.45-.85 2.26 2.26 4.35 3.92 4.76 3.63.88 6.31 2.69 7.77 3 1.09.23 2.49.38 3.36-.47 1-1 .95-4.81-.07-6.16" fill="#38226d" transform="translate(-28.33)"/><path d="m349.52 489.77c-1.46-.31-4.14-2.12-7.77-3-1.39-.34-3.79-1.86-4-3.68-.33 2.09 2.48 3.93 4 4.31 3.63.88 6.31 2.69 7.77 3 1.09.23 2.49.38 3.36-.47a2.05 2.05 0 0 0 .47-.87 4.34 4.34 0 0 1 -3.83.72" fill="#9c73ff" transform="translate(-28.33)"/><path d="m353.61 463.56a44.27 44.27 0 0 0 -1.66-7.87s.49-6.79.74-13.23c.28-7.3 2.81-13.73.81-19.56l-22.24 5s1.07 29.18 1.37 32.71a66.11 66.11 0 0 0 1 8.18c1 5.65 2.15 18.3 2.15 18.3 2.39 1.39 5.88.25 5.88.25s0-15.84-.14-19.91c-.19-5-.34-4.6-.34-4.6l.75-12.39.48-6.16s.63 4.52 1 8.56c.36 3.52 1.21 6.71 2.16 13.27.82 5.69 1.67 17.28 1.67 17.28 2.39 1.39 5.59.43 5.59.43s1.38-15.28.74-20.21" fill="#8c50ff" transform="translate(-28.33)"/><path d="m350.49 388.25c-1.72.08-3 .52-3.21 0a21.94 21.94 0 0 1 -.39-2.69c.19-.49.36-1 .36-1 2.16-1.33 2.84-3.66 3.12-6.37.49-4.64-2-8.7-6.65-9.18-4.36-.45-7.57 2.61-8.43 6.82-.46 2.07-1.37 6-.13 9.41.69 1.91 1.58 3.43 2.48 3.73a23.9 23.9 0 0 0 2.58-.23s.23 1.29.39 2.12.1 1.26-1.55 2.27 2.49 3.1 5.19 2.9 5.74-1.84 6.58-3.59c.93-1.94.85-4.24-.33-4.18" fill="#ffcea9" transform="translate(-28.33)"/><path d="m348 388.5c.48 1.19-.73 2.64-3.95 3.65s-3.52-.29-3.52-.29a62.7 62.7 0 0 0 -6.26 3.23c-1.94 1.35-2.8 5.27-3.06 11.87-.3 7.65-.32 19-.07 21 0 0 3.62 3.61 8.24 3.23s12.42-4.48 14.31-7.64c-.06-6.71-.84-7.8.25-11.66 2.48-8.84 3.79-12.46 2.58-18.34-1-4.84-2.39-5.44-4.3-5.4a40.37 40.37 0 0 0 -4.22.4" fill="#f4f4f4" transform="translate(-28.33)"/><path d="m335.21 433.8 2.35-26.63-5-2.63-1.94 1.62.6 23.92v.66.84s-.11 2 3.69 4.42c0 0 .06-.63.11-1.22l.09-1z" fill="#ffcea9" transform="translate(-28.33)"/><path d="m335.8 393.44c-2.56-.05-4.2 1.31-4.82 5.26s-1 7.18-1 7.18a6.88 6.88 0 0 0 4.57 2.27c3.1.34 4-1.23 4-1.23s.32-4.11.5-6.89-.08-6.53-3.25-6.59" fill="#ededed" transform="translate(-28.33)"/><path d="m340.12 367.87c6.26-.89 10.28 3.13 10.75 7.49.44 4.17-2.13 8.5-4 10.22a7.5 7.5 0 0 1 -5.41-.65 29.94 29.94 0 0 1 -.12-3.42s3.05-6.42-5.92-6.31c0 0-4-6.09 4.68-7.33" fill="#3a2c6d" transform="translate(-28.33)"/><path d="m309.78 276.6c.23 2.07 2.7 11 2.17 14s-8.95 8.16-8.95 8.16l-1.16-5.23 4.66-4.53-1.26-8.66z" fill="#ffcea9" transform="translate(-28.33)"/><path d="m303.27 267.82a3.67 3.67 0 0 1 4.68 1.42c1.24 2.05 2.53 9.09 2.64 10.29 0 0-1.73 2.4-4.34 2z" fill="#ededed" transform="translate(-28.33)"/><path d="m293.65 367.17a7.21 7.21 0 0 1 -5.45-.66c-1.31 0-8.43-3-9.4-.45-.85 2.24 2.24 4.32 3.88 4.72 3.6.87 6.26 2.66 7.71 3 1.08.23 2.47.38 3.33-.47 1-1 .94-4.77-.07-6.11" fill="#38226d" transform="translate(-28.33)"/><path d="m290.39 373.13c-1.45-.31-4.11-2.1-7.71-3-1.38-.34-3.76-1.85-4-3.65-.32 2.07 2.47 3.9 4 4.27 3.6.87 6.26 2.66 7.71 3 1.08.23 2.47.38 3.33-.47a2.19 2.19 0 0 0 .47-.86 4.33 4.33 0 0 1 -3.8.71" fill="#9c73ff" transform="translate(-28.33)"/><path d="m305.21 362a7.2 7.2 0 0 1 -5.45-.66c-1.32 0-8.44-3-9.41-.45-.85 2.25 2.24 4.32 3.89 4.72 3.6.87 6.26 2.67 7.7 3 1.08.23 2.47.38 3.33-.47 1-1 .94-4.77-.06-6.11" fill="#38226d" transform="translate(-28.33)"/><path d="m301.94 367.94c-1.44-.3-4.1-2.1-7.7-3-1.38-.33-3.76-1.85-4-3.65-.32 2.07 2.46 3.9 4 4.27 3.6.87 6.26 2.67 7.7 3 1.08.23 2.47.38 3.33-.47a2 2 0 0 0 .47-.86 4.3 4.3 0 0 1 -3.8.71" fill="#9c73ff" transform="translate(-28.33)"/><path d="m305.35 342.63a43.27 43.27 0 0 0 -1.65-7.81s.49-6.73.74-13.11c.28-7.25 2.79-13.62.81-19.4l-22.35 5s1.35 28.88 1.65 32.38a64.32 64.32 0 0 0 1 8.1c1 5.61 2.68 18.95 2.68 18.95a8.35 8.35 0 0 0 5.46.61s-.17-16.86-.32-20.9c-.19-4.94-.34-4.56-.34-4.56l.74-12.29.49-6.11s.62 4.49 1 8.49c.35 3.5 1.19 6.66 2.13 13.16.82 5.64 2.15 17 2.15 17 2.36 1.37 5.57.23 5.57.23s.86-14.8.22-19.69" fill="#ff7b7b" transform="translate(-28.33)"/><path d="m302.08 267.94c-1.7.09-3 .53-3.18 0a21.32 21.32 0 0 1 -.39-2.66c.2-.49.37-1 .37-1 2.12-1.28 2.81-3.63 3.12-6.28.48-4.6-2-8.62-6.6-9.1-4.33-.45-7.51 2.59-8.35 6.76-.46 2.06-1.37 5.95-.14 9.34.68 1.89 1.57 3.39 2.46 3.69a23.37 23.37 0 0 0 2.56-.23s.23 1.28.39 2.1.1 1.25-1.54 2.26 2.47 3.07 5.15 2.87 5.69-1.82 6.52-3.55c.92-1.94.84-4.21-.33-4.16" fill="#ffcea9" transform="translate(-28.33)"/><path d="m299.62 268.2c.47 1.17-.73 2.61-3.92 3.62s-3.49-.29-3.49-.29a61.38 61.38 0 0 0 -6.21 3.2c-1.92 1.34-2.77 5.22-3 11.77-.3 7.59-.33 18.84-.07 20.78 0 0 3.58 3.57 8.17 3.2s12.31-4.44 14.18-7.58c-.05-6.65-.82-7.73.25-11.56 2.47-8.77 3.76-12.36 2.57-18.19-1-4.8-2.38-5.4-4.27-5.35a39.68 39.68 0 0 0 -4.18.4" fill="#f4f4f4" transform="translate(-28.33)"/><path d="m275.75 292.77c3.77 1 4.65-1.42 5.15-3.39 1.2-4.76 1.84-9.06 2.74-11.76 1.05-3.19 2.15-3.69 3.7-4.32 1.82-.72 3.38.81 2.78 4.87a81.8 81.8 0 0 1 -3.45 13.83c-.47 1.49-1.52 4.12-3.1 5.39-1.94 1.57-4.87 1.51-9.29.4-1.89-.47-4-1.59-7.54-3.26-.95-.45-1.7-.74-3.54-1.6a12.52 12.52 0 0 1 -4.72-3.69c-1-1.39-1.09-2.05-.9-2.37s.69-.31 1.2.28a10.25 10.25 0 0 0 2.71 2.51s-1.19-1.23-1.83-2a10.26 10.26 0 0 1 -1.43-2.33c-.34-.81.36-1.92.9-1.34s.78 1.17 1.76 2.34a10.71 10.71 0 0 0 1.74 1.67 19.06 19.06 0 0 1 -1.6-2.59 4.23 4.23 0 0 1 -.59-2.34c0-.42.63-.93 1.19-.12a16.06 16.06 0 0 0 2 3.09c.86.89 1.6 1.4 1.62 1.15s-.52-.73-.83-1.77 0-2.14.58-2.26.46-.09.92.88a29.38 29.38 0 0 1 1.71 3.11 6.39 6.39 0 0 0 1.55 2.67c.93 1 3 2.07 6.55 3" fill="#ffcea9" transform="translate(-28.33)"/><path d="m288.73 272.65c-2.51-.37-4.29.77-5.4 4.58s-1.89 6.93-1.89 6.93a6.88 6.88 0 0 0 4.22 2.8c3 .73 4.09-.71 4.09-.71s.83-4 1.35-6.71.75-6.43-2.37-6.89" fill="#ededed" transform="translate(-28.33)"/><path d="m287.16 255s-4-6 4.64-7.27c6.21-.89 10.2 3.1 10.66 7.43.44 4.13-2.11 8.43-3.95 10.13a7.46 7.46 0 0 1 -5.37-.65 31 31 0 0 1 -.11-3.38s3-6.37-5.87-6.26" fill="#3a2c6d" transform="translate(-28.33)"/><path d="m180.24 391.84-.03 8.98-89.81 52.2.03-8.98z" fill="#d3d3dd"/><path d="m90.43 444.04-.03 8.98-90.4-52.19.03-8.98z" fill="#e0dee9"/><path d="m180.24 391.84-89.81 52.2-90.4-52.19 89.81-52.2z" fill="#eaeaf4"/><path d="m166.23 255.73-.38 134.73-75.59 43.92.38-134.72z" fill="#d3d3dd"/><path d="m90.64 299.66-.38 134.72-76.09-43.92.38-134.73z" fill="#e0dee9"/><path d="m166.23 255.73-75.59 43.93-76.09-43.93 75.59-43.93z" fill="#eaeaf4"/><path d="m34.16 314.64-.04 13.97-12.15-7.02.04-13.96z" fill="#2a313f"/><path d="m34.22 295.21-.04 13.96-12.15-7.01.04-13.96z" fill="#2a313f"/><path d="m34.27 275.78-.04 13.97-12.14-7.02.03-13.97z" fill="#2a313f"/><path d="m83.26 362.45-.04 13.97-43.6-25.17.04-13.97z" fill="#2a313f"/><path d="m83.31 343.02-.04 13.97-43.59-25.17.04-13.97z" fill="#2a313f"/><path d="m83.37 323.59-.04 13.96-43.6-25.17.04-13.96z" fill="#2a313f"/><path d="m83.42 304.15-.04 13.97-43.59-25.17.04-13.96z" fill="#2a313f"/><path d="m34.05 353.5-.04 13.97-12.15-7.02.04-13.96z" fill="#2a313f"/><path d="m34.11 334.07-.04 13.97-12.15-7.01.04-13.97z" fill="#2a313f"/><path d="m83.2 381.88-.04 13.97-43.59-25.17.04-13.97z" fill="#2a313f"/><path d="m109.83 316.72.04 13.97-12.16 7.02-.04-13.97z" fill="#2a313f"/><path d="m109.77 297.29.04 13.97-12.15 7.02-.04-13.97z" fill="#2a313f"/><path d="m159.14 346.65.04 13.96-43.6 25.17-.04-13.96z" fill="#2a313f"/><path d="m159.08 327.21.04 13.97-43.59 25.17-.04-13.97z" fill="#2a313f"/><path d="m159.03 307.79.04 13.96-43.6 25.17-.04-13.97z" fill="#2a313f"/><path d="m158.97 288.35.04 13.97-43.59 25.17-.04-13.97z" fill="#2a313f"/><path d="m158.92 268.92.04 13.96-43.6 25.18-.04-13.97z" fill="#2a313f"/><path d="m109.99 375.02.04 13.96-12.15 7.02-.04-13.96z" fill="#2a313f"/><path d="m109.94 355.58.04 13.97-12.16 7.02-.04-13.97z" fill="#2a313f"/><path d="m109.88 336.16.04 13.96-12.15 7.02-.04-13.96z" fill="#2a313f"/><path d="m165.88 379.59-.03 10.86-75.59 43.93.02-11.12z" fill="#9052fe"/><path d="m90.28 423.26-.03 11.12-76.08-43.92.03-11.13z" fill="#9052fe"/><path d="m118.12 257.51a6.17 6.17 0 0 0 .86 0l4.32 2.5a16.29 16.29 0 0 1 -9.48 0z" fill="#2a313f" transform="translate(-28.33)"/><path d="m99.33 241.68c11-5.33 27.18-5.33 38.26 0l-3.9 2.26c-8.91-4.1-21.58-4.1-30.43 0z" fill="#2a313f" transform="translate(-28.33)"/><path d="m106 245.53a33.19 33.19 0 0 1 24.93 0l-3.93 2.29a24.52 24.52 0 0 0 -17 0z" fill="#2a313f" transform="translate(-28.33)"/><path d="m113.76 250a16.32 16.32 0 0 1 9.49 0l-4.25 2.5h-.88z" fill="#2a313f" transform="translate(-28.33)"/><path d="m122.86 255.26a2.09 2.09 0 0 0 0-.5l4.3-2.5a3.72 3.72 0 0 1 0 5.49z" fill="#2a313f" transform="translate(-28.33)"/><path d="m131 260c3.5-3 3.49-6.92 0-9.88l3.93-2.28c5.63 4.24 5.66 10.2.08 14.44z" fill="#2a313f" transform="translate(-28.33)"/><path d="m106.08 250.07c-3.5 3-3.47 6.92.07 9.88l-3.94 2.28c-5.63-4.24-5.66-10.2-.08-14.44z" fill="#2a313f" transform="translate(-28.33)"/><path d="m137.7 263.83c7-5.14 7-12.49-.1-17.63l3.9-2.27c9.22 6.4 9.28 15.76.12 22.16z" fill="#2a313f" transform="translate(-28.33)"/><path d="m103.38 266.08c8.9 4.09 21.59 4.09 30.43 0l3.92 2.27c-11 5.32-27.17 5.32-38.24 0z" fill="#2a313f" transform="translate(-28.33)"/><path d="m99.37 246.2c-7 5.13-7 12.48.1 17.63l-3.89 2.26c-9.24-6.4-9.29-15.76-.13-22.16z" fill="#2a313f" transform="translate(-28.33)"/><path d="m110.05 262.2a24.52 24.52 0 0 0 17 0l4 2.29a33.12 33.12 0 0 1 -24.94 0z" fill="#2a313f" transform="translate(-28.33)"/><path d="m114.2 254.76a1.68 1.68 0 0 0 0 .5l-4.3 2.5a3.71 3.71 0 0 1 0-5.5z" fill="#2a313f" transform="translate(-28.33)"/><path d="m180.21 400.83 41.54-23.86" fill="#ffcea9"/></g></g></svg>